<mxfile host="app.diagrams.net" agent="Mozilla/5.0 (Macintosh; Intel Mac OS X 10_15_7) AppleWebKit/537.36 (KHTML, like Gecko) Chrome/136.0.0.0 Safari/537.36" version="27.0.3">
  <diagram name="Page-1" id="8psTu5joOEkHxSPbt8DS">
    <mxGraphModel dx="2178" dy="4344" grid="1" gridSize="10" guides="1" tooltips="1" connect="1" arrows="1" fold="1" page="1" pageScale="1" pageWidth="827" pageHeight="1169" math="0" shadow="0">
      <root>
        <mxCell id="0" />
        <mxCell id="1" parent="0" />
        <mxCell id="5wcGb58u3SQSDJ49Bvyi-1" value="&lt;font style=&quot;font-size: 18px;&quot;&gt;AXI STREAM&lt;/font&gt;&lt;div&gt;&lt;font size=&quot;3&quot;&gt;Interface&lt;/font&gt;&lt;/div&gt;&lt;div&gt;&lt;font size=&quot;3&quot;&gt;(Slave)&lt;/font&gt;&lt;/div&gt;" style="rounded=0;whiteSpace=wrap;html=1;" parent="1" vertex="1">
          <mxGeometry x="160" y="20" width="80" height="179.5" as="geometry" />
        </mxCell>
        <mxCell id="5wcGb58u3SQSDJ49Bvyi-6" value="&lt;span style=&quot;font-size: 18px;&quot;&gt;Background&lt;/span&gt;&lt;br&gt;&lt;div&gt;&lt;font size=&quot;3&quot;&gt;&amp;nbsp;Buffer&lt;/font&gt;&lt;/div&gt;" style="rounded=0;whiteSpace=wrap;html=1;" parent="1" vertex="1">
          <mxGeometry x="736" y="-253" width="120" height="100" as="geometry" />
        </mxCell>
        <mxCell id="5wcGb58u3SQSDJ49Bvyi-7" value="&lt;span style=&quot;background-color: transparent; color: light-dark(rgb(0, 0, 0), rgb(255, 255, 255)); font-size: 18px;&quot;&gt;Variation&lt;/span&gt;&lt;div&gt;&lt;span style=&quot;font-size: medium; background-color: transparent; color: light-dark(rgb(0, 0, 0), rgb(255, 255, 255));&quot;&gt;&amp;nbsp;Buffer&lt;/span&gt;&lt;/div&gt;" style="rounded=0;whiteSpace=wrap;html=1;" parent="1" vertex="1">
          <mxGeometry x="736" y="-137" width="120" height="100" as="geometry" />
        </mxCell>
        <mxCell id="5wcGb58u3SQSDJ49Bvyi-8" value="&lt;font style=&quot;font-size: 24px;&quot;&gt;AXI MEM (Master)&lt;/font&gt;" style="whiteSpace=wrap;html=1;" parent="1" vertex="1">
          <mxGeometry x="150" y="-352" width="1664" height="60" as="geometry" />
        </mxCell>
        <mxCell id="5wcGb58u3SQSDJ49Bvyi-26" value="" style="edgeStyle=orthogonalEdgeStyle;rounded=0;orthogonalLoop=1;jettySize=auto;html=1;strokeWidth=3;" parent="1" edge="1">
          <mxGeometry relative="1" as="geometry">
            <mxPoint x="1100" y="47.28" as="targetPoint" />
            <mxPoint x="1010" y="47.280000000000456" as="sourcePoint" />
            <Array as="points">
              <mxPoint x="1059" y="47.28" />
            </Array>
          </mxGeometry>
        </mxCell>
        <mxCell id="5wcGb58u3SQSDJ49Bvyi-16" value="&lt;font style=&quot;font-size: 18px;&quot;&gt;Motion Detector&lt;/font&gt;" style="whiteSpace=wrap;html=1;" parent="1" vertex="1">
          <mxGeometry x="920" y="-242.5" width="91" height="580" as="geometry" />
        </mxCell>
        <mxCell id="5wcGb58u3SQSDJ49Bvyi-30" value="" style="edgeStyle=orthogonalEdgeStyle;rounded=0;orthogonalLoop=1;jettySize=auto;html=1;strokeWidth=3;" parent="1" source="5wcGb58u3SQSDJ49Bvyi-25" edge="1">
          <mxGeometry relative="1" as="geometry">
            <mxPoint x="1524" y="47.25" as="targetPoint" />
          </mxGeometry>
        </mxCell>
        <mxCell id="5wcGb58u3SQSDJ49Bvyi-25" value="&lt;font style=&quot;font-size: 24px;&quot;&gt;3x3 Box Filter&lt;/font&gt;" style="rounded=0;whiteSpace=wrap;html=1;" parent="1" vertex="1">
          <mxGeometry x="1281" y="-27.5" width="163" height="150" as="geometry" />
        </mxCell>
        <mxCell id="5wcGb58u3SQSDJ49Bvyi-29" value="" style="endArrow=classic;html=1;rounded=0;strokeWidth=3;exitX=0.872;exitY=0.996;exitDx=0;exitDy=0;exitPerimeter=0;" parent="1" source="5wcGb58u3SQSDJ49Bvyi-8" edge="1">
          <mxGeometry width="50" height="50" relative="1" as="geometry">
            <mxPoint x="1600" y="-290" as="sourcePoint" />
            <mxPoint x="1604.87" y="-27.5" as="targetPoint" />
          </mxGeometry>
        </mxCell>
        <mxCell id="5wcGb58u3SQSDJ49Bvyi-45" value="" style="shape=flexArrow;endArrow=classic;startArrow=classic;html=1;rounded=0;entryX=0;entryY=0.5;entryDx=0;entryDy=0;" parent="1" edge="1">
          <mxGeometry width="100" height="100" relative="1" as="geometry">
            <mxPoint x="1854" y="56.25" as="sourcePoint" />
            <mxPoint x="1944" y="57.25" as="targetPoint" />
          </mxGeometry>
        </mxCell>
        <mxCell id="82p9OovAjXmLQtIsP7t_-12" value="&lt;span style=&quot;font-size: 18px;&quot;&gt;Sigma-Delta&lt;/span&gt;&lt;div&gt;&lt;span style=&quot;font-size: 18px;&quot;&gt;Update&lt;/span&gt;&lt;/div&gt;" style="rounded=0;whiteSpace=wrap;html=1;" parent="1" vertex="1">
          <mxGeometry x="516.5" y="-258.75" width="120" height="230" as="geometry" />
        </mxCell>
        <mxCell id="82p9OovAjXmLQtIsP7t_-16" value="" style="edgeStyle=orthogonalEdgeStyle;rounded=0;orthogonalLoop=1;jettySize=auto;html=1;strokeWidth=3;" parent="1" edge="1">
          <mxGeometry relative="1" as="geometry">
            <mxPoint x="920" y="-205" as="targetPoint" />
            <mxPoint x="858" y="-205" as="sourcePoint" />
          </mxGeometry>
        </mxCell>
        <mxCell id="82p9OovAjXmLQtIsP7t_-17" value="" style="edgeStyle=orthogonalEdgeStyle;rounded=0;orthogonalLoop=1;jettySize=auto;html=1;strokeWidth=3;" parent="1" edge="1">
          <mxGeometry relative="1" as="geometry">
            <mxPoint x="920" y="-90" as="targetPoint" />
            <mxPoint x="856" y="-90" as="sourcePoint" />
          </mxGeometry>
        </mxCell>
        <mxCell id="82p9OovAjXmLQtIsP7t_-18" value="&lt;font style=&quot;font-size: 24px;&quot;&gt;Motion Overlay&lt;/font&gt;" style="rounded=0;whiteSpace=wrap;html=1;" parent="1" vertex="1">
          <mxGeometry x="1524" y="-27.5" width="163" height="150" as="geometry" />
        </mxCell>
        <mxCell id="5wcGb58u3SQSDJ49Bvyi-28" value="&lt;font style=&quot;font-size: 18px;&quot;&gt;AXI STREAM&lt;/font&gt;&lt;div&gt;&lt;font size=&quot;3&quot;&gt;Interface&lt;/font&gt;&lt;/div&gt;&lt;div&gt;&lt;font size=&quot;3&quot;&gt;(Master)&lt;/font&gt;&lt;/div&gt;" style="rounded=0;whiteSpace=wrap;html=1;" parent="1" vertex="1">
          <mxGeometry x="1774" y="-21.250000000000114" width="80" height="143.75" as="geometry" />
        </mxCell>
        <mxCell id="82p9OovAjXmLQtIsP7t_-20" value="" style="edgeStyle=orthogonalEdgeStyle;rounded=0;orthogonalLoop=1;jettySize=auto;html=1;strokeWidth=3;" parent="1" edge="1">
          <mxGeometry relative="1" as="geometry">
            <mxPoint x="1688" y="57.25" as="sourcePoint" />
            <mxPoint x="1768" y="57.25" as="targetPoint" />
          </mxGeometry>
        </mxCell>
        <mxCell id="1Rf1SUsvrOOBmwsHc8l4-15" value="" style="swimlane;startSize=0;" parent="1" vertex="1">
          <mxGeometry x="190" y="-2340" width="1768" height="970" as="geometry" />
        </mxCell>
        <mxCell id="1Rf1SUsvrOOBmwsHc8l4-16" value="&lt;font style=&quot;font-size: 36px;&quot;&gt;&lt;b&gt;Digital Video Motion Detector&lt;/b&gt;&lt;/font&gt;" style="text;html=1;align=center;verticalAlign=middle;whiteSpace=wrap;rounded=0;" parent="1Rf1SUsvrOOBmwsHc8l4-15" vertex="1">
          <mxGeometry x="660" y="40" width="530" height="30" as="geometry" />
        </mxCell>
        <mxCell id="1Rf1SUsvrOOBmwsHc8l4-17" value="&lt;font style=&quot;font-size: 18px;&quot;&gt;AXI LITE&lt;/font&gt;&lt;div&gt;&lt;font size=&quot;3&quot;&gt;Interface&lt;/font&gt;&lt;/div&gt;&lt;div&gt;&lt;font size=&quot;3&quot;&gt;(Slave)&lt;/font&gt;&lt;/div&gt;" style="whiteSpace=wrap;html=1;" parent="1" vertex="1">
          <mxGeometry x="165" y="320" width="75" height="181" as="geometry" />
        </mxCell>
        <mxCell id="1Rf1SUsvrOOBmwsHc8l4-18" value="&lt;font style=&quot;font-size: 24px;&quot;&gt;Control&lt;/font&gt;" style="rounded=0;whiteSpace=wrap;html=1;" parent="1" vertex="1">
          <mxGeometry x="280" y="405.5" width="1570" height="60" as="geometry" />
        </mxCell>
        <mxCell id="1Rf1SUsvrOOBmwsHc8l4-19" value="" style="endArrow=classic;startArrow=classic;html=1;rounded=0;exitX=1.022;exitY=0.641;exitDx=0;exitDy=0;entryX=0;entryY=0.5;entryDx=0;entryDy=0;strokeWidth=3;exitPerimeter=0;" parent="1" source="1Rf1SUsvrOOBmwsHc8l4-17" target="1Rf1SUsvrOOBmwsHc8l4-18" edge="1">
          <mxGeometry width="50" height="50" relative="1" as="geometry">
            <mxPoint x="354" y="125.5" as="sourcePoint" />
            <mxPoint x="404" y="75.5" as="targetPoint" />
          </mxGeometry>
        </mxCell>
        <mxCell id="NFXl4zrB0YOdTl866a_t-1" value="" style="edgeStyle=orthogonalEdgeStyle;rounded=0;orthogonalLoop=1;jettySize=auto;html=1;strokeWidth=3;" parent="1" edge="1">
          <mxGeometry relative="1" as="geometry">
            <mxPoint x="1220" y="49.5" as="sourcePoint" />
            <mxPoint x="1280" y="49.5" as="targetPoint" />
          </mxGeometry>
        </mxCell>
        <mxCell id="NFXl4zrB0YOdTl866a_t-2" value="&lt;span style=&quot;font-size: 18px;&quot;&gt;Motion&lt;/span&gt;&lt;div&gt;&lt;span style=&quot;font-size: 18px;&quot;&gt;Map Buffer&lt;/span&gt;&lt;/div&gt;" style="rounded=0;whiteSpace=wrap;html=1;" parent="1" vertex="1">
          <mxGeometry x="1100" y="0.6200000000000045" width="120" height="100" as="geometry" />
        </mxCell>
        <mxCell id="YUo0tV-gyAyulcyTNa2H-4" value="" style="edgeStyle=orthogonalEdgeStyle;rounded=0;orthogonalLoop=1;jettySize=auto;html=1;strokeWidth=3;" parent="1" edge="1">
          <mxGeometry relative="1" as="geometry">
            <mxPoint x="920" y="160.25" as="targetPoint" />
            <mxPoint x="840" y="160.3" as="sourcePoint" />
          </mxGeometry>
        </mxCell>
        <mxCell id="YUo0tV-gyAyulcyTNa2H-6" value="" style="edgeStyle=orthogonalEdgeStyle;rounded=0;orthogonalLoop=1;jettySize=auto;html=1;strokeWidth=3;entryX=1;entryY=0.5;entryDx=0;entryDy=0;" parent="1" edge="1">
          <mxGeometry relative="1" as="geometry">
            <mxPoint x="620" y="245.5" as="targetPoint" />
            <mxPoint x="620.3" y="405.5" as="sourcePoint" />
          </mxGeometry>
        </mxCell>
        <mxCell id="YUo0tV-gyAyulcyTNa2H-10" value="" style="endArrow=classic;html=1;rounded=0;strokeWidth=3;entryX=0.5;entryY=1;entryDx=0;entryDy=0;exitX=0.978;exitY=0.007;exitDx=0;exitDy=0;exitPerimeter=0;" parent="1" edge="1">
          <mxGeometry width="50" height="50" relative="1" as="geometry">
            <mxPoint x="1604.67" y="405.5" as="sourcePoint" />
            <mxPoint x="1605.67" y="122.5" as="targetPoint" />
          </mxGeometry>
        </mxCell>
        <mxCell id="YUo0tV-gyAyulcyTNa2H-11" value="" style="endArrow=classic;html=1;rounded=0;strokeWidth=3;entryX=0.5;entryY=1;entryDx=0;entryDy=0;exitX=0.978;exitY=0.007;exitDx=0;exitDy=0;exitPerimeter=0;" parent="1" edge="1">
          <mxGeometry width="50" height="50" relative="1" as="geometry">
            <mxPoint x="1361.67" y="405.5" as="sourcePoint" />
            <mxPoint x="1362.67" y="122.5" as="targetPoint" />
          </mxGeometry>
        </mxCell>
        <mxCell id="YUo0tV-gyAyulcyTNa2H-13" value="" style="edgeStyle=orthogonalEdgeStyle;rounded=0;orthogonalLoop=1;jettySize=auto;html=1;strokeWidth=3;" parent="1" edge="1">
          <mxGeometry relative="1" as="geometry">
            <mxPoint x="995.32" y="337.5" as="targetPoint" />
            <mxPoint x="995.2" y="407.5" as="sourcePoint" />
          </mxGeometry>
        </mxCell>
        <mxCell id="YUo0tV-gyAyulcyTNa2H-15" value="" style="endArrow=classic;startArrow=classic;html=1;rounded=0;exitX=0.5;exitY=1;exitDx=0;exitDy=0;strokeWidth=3;" parent="1" source="5wcGb58u3SQSDJ49Bvyi-28" edge="1">
          <mxGeometry width="50" height="50" relative="1" as="geometry">
            <mxPoint x="620" y="700" as="sourcePoint" />
            <mxPoint x="1814" y="401" as="targetPoint" />
          </mxGeometry>
        </mxCell>
        <mxCell id="YUo0tV-gyAyulcyTNa2H-16" value="" style="endArrow=classic;startArrow=classic;html=1;rounded=0;exitX=0.5;exitY=1;exitDx=0;exitDy=0;strokeWidth=3;" parent="1" edge="1">
          <mxGeometry width="50" height="50" relative="1" as="geometry">
            <mxPoint x="200" y="199.5" as="sourcePoint" />
            <mxPoint x="399" y="400" as="targetPoint" />
            <Array as="points">
              <mxPoint x="200" y="280" />
              <mxPoint x="400" y="280" />
            </Array>
          </mxGeometry>
        </mxCell>
        <mxCell id="KWNy_G2wFi_E8i1F_-4x-1" value="&lt;span style=&quot;font-size: 18px;&quot;&gt;Frame&amp;nbsp;&lt;/span&gt;&lt;div&gt;&lt;span style=&quot;font-size: 18px;&quot;&gt;Manager&lt;/span&gt;&lt;/div&gt;" style="rounded=0;whiteSpace=wrap;html=1;" parent="1" vertex="1">
          <mxGeometry x="450" y="10" width="390" height="230" as="geometry" />
        </mxCell>
        <mxCell id="KWNy_G2wFi_E8i1F_-4x-2" value="" style="edgeStyle=orthogonalEdgeStyle;rounded=0;orthogonalLoop=1;jettySize=auto;html=1;strokeWidth=3;" parent="1" edge="1">
          <mxGeometry relative="1" as="geometry">
            <mxPoint x="920" y="100.61999999999999" as="targetPoint" />
            <mxPoint x="840" y="100.67" as="sourcePoint" />
          </mxGeometry>
        </mxCell>
        <mxCell id="Wih975mYUc9LBkL0XSU5-4" value="&lt;h3 class=&quot;&quot; data-end=&quot;190&quot; data-start=&quot;157&quot;&gt;&lt;strong data-end=&quot;190&quot; data-start=&quot;161&quot;&gt;&lt;font face=&quot;Times New Roman&quot; style=&quot;font-size: 36px;&quot;&gt;Step 1: Frame Acquisition&lt;/font&gt;&lt;/strong&gt;&lt;/h3&gt;&lt;h3 class=&quot;&quot; data-end=&quot;190&quot; data-start=&quot;157&quot;&gt;&lt;font face=&quot;Times New Roman&quot; style=&quot;font-size: 24px;&quot;&gt;&lt;span style=&quot;font-weight: normal;&quot; data-end=&quot;190&quot; data-start=&quot;161&quot;&gt;1&lt;/span&gt;&lt;strong style=&quot;&quot; data-end=&quot;190&quot; data-start=&quot;161&quot;&gt;.&amp;nbsp;&lt;/strong&gt;&lt;span style=&quot;background-color: transparent; color: light-dark(rgb(0, 0, 0), rgb(255, 255, 255)); font-weight: normal;&quot;&gt;Receive a 32-bit RGB pixel via the &lt;/span&gt;&lt;span style=&quot;background-color: transparent; color: light-dark(rgb(0, 0, 0), rgb(255, 255, 255)); font-weight: normal;&quot; data-end=&quot;248&quot; data-start=&quot;228&quot;&gt;AXI Stream Slave&lt;/span&gt;&lt;span style=&quot;background-color: transparent; color: light-dark(rgb(0, 0, 0), rgb(255, 255, 255)); font-weight: normal;&quot;&gt; interface.&lt;/span&gt;&lt;/font&gt;&lt;/h3&gt;&lt;h3 class=&quot;&quot; data-end=&quot;190&quot; data-start=&quot;157&quot;&gt;&lt;font style=&quot;background-color: transparent; color: light-dark(rgb(0, 0, 0), rgb(255, 255, 255)); font-size: 12px; font-weight: normal;&quot; face=&quot;Times New Roman&quot;&gt;&lt;span style=&quot;font-size: 24px;&quot;&gt;2.&amp;nbsp;&lt;/span&gt;&lt;/font&gt;&lt;span style=&quot;background-color: transparent; color: light-dark(rgb(0, 0, 0), rgb(255, 255, 255)); font-weight: normal; font-size: 24px; font-family: &amp;quot;Times New Roman&amp;quot;;&quot;&gt;Convert the RGB pixel to an 8-bit grayscale value.&lt;/span&gt;&lt;/h3&gt;&lt;div&gt;&lt;h3 class=&quot;&quot; data-end=&quot;377&quot; data-start=&quot;348&quot;&gt;&lt;font style=&quot;font-size: 24px;&quot; face=&quot;Times New Roman&quot;&gt;&lt;span style=&quot;background-color: transparent; color: light-dark(rgb(0, 0, 0), rgb(255, 255, 255)); font-weight: normal;&quot;&gt;3. Store the grayscale pixel into&amp;nbsp;&lt;/span&gt;&lt;span style=&quot;background-color: transparent; color: light-dark(rgb(0, 0, 0), rgb(255, 255, 255)); font-weight: normal;&quot; data-end=&quot;569&quot; data-start=&quot;552&quot;&gt;frame buffers&lt;/span&gt;&lt;span style=&quot;background-color: transparent; color: light-dark(rgb(0, 0, 0), rgb(255, 255, 255)); font-weight: normal;&quot;&gt;&amp;nbsp;using round-robin rotation.&lt;/span&gt;&lt;/font&gt;&lt;/h3&gt;&lt;/div&gt;&lt;div&gt;&lt;h3 class=&quot;&quot; data-end=&quot;377&quot; data-start=&quot;348&quot;&gt;&lt;font style=&quot;font-size: 24px;&quot; face=&quot;Times New Roman&quot;&gt;&lt;span style=&quot;background-color: transparent; color: light-dark(rgb(0, 0, 0), rgb(255, 255, 255)); font-weight: normal;&quot;&gt;4. Provide the latest two frames to the&amp;nbsp;&lt;/span&gt;&lt;span style=&quot;background-color: transparent; color: light-dark(rgb(0, 0, 0), rgb(255, 255, 255)); font-weight: normal;&quot; data-end=&quot;659&quot; data-start=&quot;639&quot;&gt;Motion Detection&lt;/span&gt;&lt;span style=&quot;background-color: transparent; color: light-dark(rgb(0, 0, 0), rgb(255, 255, 255)); font-weight: normal;&quot;&gt;&amp;nbsp;block.&lt;/span&gt;&lt;/font&gt;&lt;/h3&gt;&lt;/div&gt;&lt;div&gt;&lt;font style=&quot;font-size: 24px;&quot; face=&quot;Times New Roman&quot;&gt;&lt;span style=&quot;background-color: transparent; color: light-dark(rgb(0, 0, 0), rgb(255, 255, 255)); font-weight: normal;&quot;&gt;&lt;br&gt;&lt;/span&gt;&lt;/font&gt;&lt;/div&gt;" style="text;html=1;whiteSpace=wrap;overflow=hidden;rounded=0;" parent="1" vertex="1">
          <mxGeometry x="107.5" y="530" width="446" height="440" as="geometry" />
        </mxCell>
        <mxCell id="Wih975mYUc9LBkL0XSU5-5" value="&lt;h3 class=&quot;&quot; data-end=&quot;705&quot; data-start=&quot;673&quot;&gt;&lt;strong data-end=&quot;705&quot; data-start=&quot;677&quot;&gt;&lt;font style=&quot;font-size: 36px;&quot; face=&quot;Times New Roman&quot;&gt;Step 2: Motion Detection&lt;/font&gt;&lt;/strong&gt;&lt;/h3&gt;&lt;h3 class=&quot;&quot; data-end=&quot;705&quot; data-start=&quot;673&quot;&gt;&lt;font style=&quot;font-size: 24px;&quot; face=&quot;Times New Roman&quot;&gt;&lt;span style=&quot;background-color: transparent; color: light-dark(rgb(0, 0, 0), rgb(255, 255, 255));&quot;&gt;&lt;span style=&quot;font-weight: normal;&quot;&gt;1.&lt;/span&gt;&amp;nbsp;&lt;/span&gt;&lt;span style=&quot;background-color: transparent; color: light-dark(rgb(0, 0, 0), rgb(255, 255, 255)); font-weight: normal;&quot;&gt;Compare the current frame to the background and the previous frame.&lt;/span&gt;&lt;/font&gt;&lt;/h3&gt;&lt;h3 class=&quot;&quot; data-end=&quot;705&quot; data-start=&quot;673&quot;&gt;&lt;font style=&quot;font-size: 24px;&quot; face=&quot;Times New Roman&quot;&gt;&lt;span style=&quot;background-color: transparent; color: light-dark(rgb(0, 0, 0), rgb(255, 255, 255)); font-weight: normal;&quot;&gt;2. Generate a binary&amp;nbsp;&lt;/span&gt;&lt;span style=&quot;background-color: transparent; color: light-dark(rgb(0, 0, 0), rgb(255, 255, 255)); font-weight: normal;&quot; data-end=&quot;812&quot; data-start=&quot;798&quot;&gt;motion map&lt;/span&gt;&lt;span style=&quot;background-color: transparent; color: light-dark(rgb(0, 0, 0), rgb(255, 255, 255)); font-weight: normal;&quot;&gt;&amp;nbsp;identifying motion pixels.&lt;/span&gt;&lt;/font&gt;&lt;/h3&gt;&lt;h3 class=&quot;&quot; data-end=&quot;377&quot; data-start=&quot;348&quot;&gt;&lt;font style=&quot;font-size: 24px;&quot; face=&quot;Times New Roman&quot;&gt;&lt;span style=&quot;background-color: transparent; color: light-dark(rgb(0, 0, 0), rgb(255, 255, 255)); font-weight: normal;&quot;&gt;3. Update the&amp;nbsp;&lt;/span&gt;&lt;span style=&quot;font-weight: normal;&quot;&gt;&lt;span style=&quot;background-color: transparent; color: light-dark(rgb(0, 0, 0), rgb(255, 255, 255));&quot; data-end=&quot;472&quot; data-start=&quot;446&quot;&gt;Sigma-Delta background&lt;/span&gt;&lt;span style=&quot;background-color: transparent; color: light-dark(rgb(0, 0, 0), rgb(255, 255, 255));&quot;&gt;&amp;nbsp;&lt;/span&gt;&lt;/span&gt;&lt;span style=&quot;background-color: transparent; color: light-dark(rgb(0, 0, 0), rgb(255, 255, 255)); font-weight: normal;&quot;&gt;and&amp;nbsp;&lt;/span&gt;&lt;span style=&quot;background-color: transparent; color: light-dark(rgb(0, 0, 0), rgb(255, 255, 255)); font-weight: normal;&quot; data-end=&quot;489&quot; data-start=&quot;477&quot;&gt;variance&lt;/span&gt;&lt;span style=&quot;background-color: transparent; color: light-dark(rgb(0, 0, 0), rgb(255, 255, 255)); font-weight: normal;&quot;&gt;&amp;nbsp;using the grayscale pixel.&lt;/span&gt;&lt;/font&gt;&lt;/h3&gt;&lt;div&gt;&lt;font face=&quot;Times New Roman&quot;&gt;&lt;span style=&quot;font-size: 24px;&quot;&gt;4.&amp;nbsp;&lt;/span&gt;&lt;/font&gt;&lt;span style=&quot;font-size: 24px; font-family: &amp;quot;Times New Roman&amp;quot;; background-color: transparent; color: light-dark(rgb(0, 0, 0), rgb(255, 255, 255));&quot;&gt;Store the pixel in external memory using the&amp;nbsp;&lt;/span&gt;&lt;span style=&quot;font-size: 24px; font-family: &amp;quot;Times New Roman&amp;quot;; background-color: transparent; color: light-dark(rgb(0, 0, 0), rgb(255, 255, 255));&quot; data-end=&quot;330&quot; data-start=&quot;309&quot;&gt;AXI Memory Master&lt;/span&gt;&lt;span style=&quot;font-size: 24px; font-family: &amp;quot;Times New Roman&amp;quot;; background-color: transparent; color: light-dark(rgb(0, 0, 0), rgb(255, 255, 255));&quot;&gt;&amp;nbsp;interface.&lt;/span&gt;&lt;/div&gt;&lt;h3 class=&quot;&quot; data-end=&quot;377&quot; data-start=&quot;348&quot;&gt;&lt;div&gt;&lt;/div&gt;&lt;/h3&gt;&lt;h1 style=&quot;margin-top: 0px;&quot;&gt;&lt;ul data-end=&quot;907&quot; data-start=&quot;706&quot;&gt;&lt;br&gt;&lt;/ul&gt;&lt;/h1&gt;" style="text;html=1;whiteSpace=wrap;overflow=hidden;rounded=0;" parent="1" vertex="1">
          <mxGeometry x="620" y="535" width="508" height="460" as="geometry" />
        </mxCell>
        <mxCell id="Wih975mYUc9LBkL0XSU5-8" value="" style="verticalLabelPosition=bottom;verticalAlign=top;html=1;strokeWidth=2;shape=mxgraph.arrows2.arrow;dy=0.6;dx=40;notch=0;" parent="1" vertex="1">
          <mxGeometry x="542.5" y="659" width="60" height="70" as="geometry" />
        </mxCell>
        <mxCell id="Wih975mYUc9LBkL0XSU5-10" value="&lt;h3 class=&quot;&quot; data-end=&quot;377&quot; data-start=&quot;348&quot;&gt;&lt;strong data-end=&quot;377&quot; data-start=&quot;352&quot;&gt;&lt;font style=&quot;font-size: 36px;&quot; face=&quot;Times New Roman&quot;&gt;Step 3: Filter &amp;amp;&amp;nbsp;&lt;/font&gt;&lt;/strong&gt;&lt;strong style=&quot;background-color: transparent; color: light-dark(rgb(0, 0, 0), rgb(255, 255, 255)); font-size: 12px;&quot; data-end=&quot;953&quot; data-start=&quot;918&quot;&gt;&lt;font style=&quot;font-size: 36px;&quot; face=&quot;Times New Roman&quot;&gt;Motion Overlay&amp;nbsp;&lt;/font&gt;&lt;/strong&gt;&lt;/h3&gt;&lt;h1 style=&quot;margin-top: 0px;&quot;&gt;&lt;ul data-end=&quot;907&quot; data-start=&quot;706&quot;&gt;&lt;/ul&gt;&lt;/h1&gt;&lt;h3 class=&quot;&quot; data-end=&quot;377&quot; data-start=&quot;348&quot;&gt;&lt;span style=&quot;font-size: 24px; font-family: &amp;quot;Times New Roman&amp;quot;; background-color: transparent; color: light-dark(rgb(0, 0, 0), rgb(255, 255, 255)); font-weight: normal;&quot;&gt;1. Apply a&amp;nbsp;&lt;/span&gt;&lt;span style=&quot;font-size: 24px; font-family: &amp;quot;Times New Roman&amp;quot;; background-color: transparent; color: light-dark(rgb(0, 0, 0), rgb(255, 255, 255)); font-weight: normal;&quot; data-end=&quot;870&quot; data-start=&quot;852&quot;&gt;3x3 Box Filter&lt;/span&gt;&lt;span style=&quot;font-size: 24px; font-family: &amp;quot;Times New Roman&amp;quot;; background-color: transparent; color: light-dark(rgb(0, 0, 0), rgb(255, 255, 255)); font-weight: normal;&quot;&gt;&amp;nbsp;to remove noise from the motion map.&lt;/span&gt;&lt;/h3&gt;&lt;div&gt;&lt;h3 class=&quot;&quot; data-end=&quot;953&quot; data-start=&quot;914&quot;&gt;&lt;font style=&quot;font-size: 24px;&quot; face=&quot;Times New Roman&quot;&gt;&lt;span style=&quot;background-color: transparent; color: light-dark(rgb(0, 0, 0), rgb(255, 255, 255));&quot;&gt;&lt;span style=&quot;font-weight: normal;&quot;&gt;2.&lt;/span&gt;&amp;nbsp;&lt;/span&gt;&lt;span style=&quot;background-color: transparent; color: light-dark(rgb(0, 0, 0), rgb(255, 255, 255)); font-weight: normal;&quot;&gt;For each pixel, read the corresponding RGB value from memory.&lt;/span&gt;&lt;/font&gt;&lt;/h3&gt;&lt;h3 class=&quot;&quot; data-end=&quot;953&quot; data-start=&quot;914&quot;&gt;&lt;font style=&quot;font-size: 24px;&quot; face=&quot;Times New Roman&quot;&gt;&lt;span style=&quot;background-color: transparent; color: light-dark(rgb(0, 0, 0), rgb(255, 255, 255)); font-weight: normal;&quot;&gt;3. Overlay&amp;nbsp;&lt;/span&gt;&lt;span style=&quot;font-weight: normal;&quot;&gt;&lt;span style=&quot;background-color: transparent; color: light-dark(rgb(0, 0, 0), rgb(255, 255, 255));&quot; data-end=&quot;1048&quot; data-start=&quot;1030&quot;&gt;bounding boxes&lt;/span&gt;&lt;span style=&quot;background-color: transparent; color: light-dark(rgb(0, 0, 0), rgb(255, 255, 255));&quot;&gt;&amp;nbsp;&lt;/span&gt;&lt;/span&gt;&lt;span style=&quot;background-color: transparent; color: light-dark(rgb(0, 0, 0), rgb(255, 255, 255)); font-weight: normal;&quot;&gt;around detected motion regions based on the motion map.&lt;/span&gt;&lt;/font&gt;&lt;/h3&gt;&lt;h3 class=&quot;&quot; data-end=&quot;953&quot; data-start=&quot;914&quot;&gt;&lt;font style=&quot;font-size: 24px;&quot; face=&quot;Times New Roman&quot;&gt;&lt;span style=&quot;background-color: transparent; color: light-dark(rgb(0, 0, 0), rgb(255, 255, 255)); font-weight: normal;&quot;&gt;4. Send the final pixel to the output via the&amp;nbsp;&lt;/span&gt;&lt;span style=&quot;background-color: transparent; color: light-dark(rgb(0, 0, 0), rgb(255, 255, 255)); font-weight: normal;&quot; data-end=&quot;1173&quot; data-start=&quot;1152&quot;&gt;AXI Stream Master&lt;/span&gt;&lt;span style=&quot;background-color: transparent; color: light-dark(rgb(0, 0, 0), rgb(255, 255, 255)); font-weight: normal;&quot;&gt;&amp;nbsp;interface.&lt;/span&gt;&lt;/font&gt;&lt;/h3&gt;&lt;/div&gt;" style="text;html=1;whiteSpace=wrap;overflow=hidden;rounded=0;" parent="1" vertex="1">
          <mxGeometry x="1226.5" y="534" width="630" height="420" as="geometry" />
        </mxCell>
        <mxCell id="Wih975mYUc9LBkL0XSU5-12" value="" style="verticalLabelPosition=bottom;verticalAlign=top;html=1;strokeWidth=2;shape=mxgraph.arrows2.arrow;dy=0.6;dx=40;notch=0;" parent="1" vertex="1">
          <mxGeometry x="1142.5" y="659" width="60" height="70" as="geometry" />
        </mxCell>
        <mxCell id="dtxXoNMcvbrdOsO5oj5G-2" value="" style="edgeStyle=orthogonalEdgeStyle;rounded=0;orthogonalLoop=1;jettySize=auto;html=1;strokeWidth=3;exitX=1.008;exitY=0.565;exitDx=0;exitDy=0;exitPerimeter=0;" parent="1" source="5wcGb58u3SQSDJ49Bvyi-1" edge="1">
          <mxGeometry relative="1" as="geometry">
            <mxPoint x="450" y="121" as="targetPoint" />
            <mxPoint x="250" y="121" as="sourcePoint" />
          </mxGeometry>
        </mxCell>
        <mxCell id="dtxXoNMcvbrdOsO5oj5G-5" value="&lt;span style=&quot;font-size: 18px;&quot;&gt;Memory&lt;/span&gt;&lt;br&gt;&lt;div&gt;&lt;span style=&quot;font-size: 18px;&quot;&gt;Manager&lt;/span&gt;&lt;/div&gt;" style="rounded=0;whiteSpace=wrap;html=1;" parent="1" vertex="1">
          <mxGeometry x="140" y="-198.75" width="110" height="110" as="geometry" />
        </mxCell>
        <mxCell id="dtxXoNMcvbrdOsO5oj5G-6" value="" style="edgeStyle=orthogonalEdgeStyle;rounded=0;orthogonalLoop=1;jettySize=auto;html=1;strokeWidth=3;" parent="1" edge="1">
          <mxGeometry relative="1" as="geometry">
            <mxPoint x="174" y="-290" as="targetPoint" />
            <mxPoint x="173.89" y="-198.75" as="sourcePoint" />
          </mxGeometry>
        </mxCell>
        <mxCell id="dtxXoNMcvbrdOsO5oj5G-9" value="" style="edgeStyle=orthogonalEdgeStyle;rounded=0;orthogonalLoop=1;jettySize=auto;html=1;strokeWidth=3;exitX=0.487;exitY=0;exitDx=0;exitDy=0;exitPerimeter=0;" parent="1" edge="1">
          <mxGeometry relative="1" as="geometry">
            <mxPoint x="576.5" y="-25.75" as="targetPoint" />
            <mxPoint x="576.4299999999998" y="8.25" as="sourcePoint" />
          </mxGeometry>
        </mxCell>
        <mxCell id="XOc9_vDRdyOMPMZFaufi-3" value="" style="endArrow=classic;html=1;rounded=0;exitX=0;exitY=0.318;exitDx=0;exitDy=0;exitPerimeter=0;strokeWidth=3;" edge="1" parent="1">
          <mxGeometry width="50" height="50" relative="1" as="geometry">
            <mxPoint x="160" y="170" as="sourcePoint" />
            <mxPoint x="80" y="170" as="targetPoint" />
          </mxGeometry>
        </mxCell>
        <mxCell id="XOc9_vDRdyOMPMZFaufi-4" value="" style="endArrow=classic;html=1;rounded=0;exitX=0;exitY=0.318;exitDx=0;exitDy=0;exitPerimeter=0;strokeWidth=3;" edge="1" parent="1">
          <mxGeometry width="50" height="50" relative="1" as="geometry">
            <mxPoint x="90" y="140" as="sourcePoint" />
            <mxPoint x="160" y="140" as="targetPoint" />
          </mxGeometry>
        </mxCell>
        <mxCell id="XOc9_vDRdyOMPMZFaufi-6" value="" style="endArrow=classic;html=1;rounded=0;exitX=0;exitY=0.318;exitDx=0;exitDy=0;exitPerimeter=0;strokeWidth=3;" edge="1" parent="1">
          <mxGeometry width="50" height="50" relative="1" as="geometry">
            <mxPoint x="90" y="110" as="sourcePoint" />
            <mxPoint x="160" y="110" as="targetPoint" />
          </mxGeometry>
        </mxCell>
        <mxCell id="XOc9_vDRdyOMPMZFaufi-7" value="" style="endArrow=classic;html=1;rounded=0;exitX=0;exitY=0.318;exitDx=0;exitDy=0;exitPerimeter=0;strokeWidth=3;" edge="1" parent="1">
          <mxGeometry width="50" height="50" relative="1" as="geometry">
            <mxPoint x="90" y="80" as="sourcePoint" />
            <mxPoint x="160" y="80" as="targetPoint" />
          </mxGeometry>
        </mxCell>
        <mxCell id="XOc9_vDRdyOMPMZFaufi-8" value="[31:0] pixel" style="text;html=1;align=center;verticalAlign=middle;whiteSpace=wrap;rounded=0;" vertex="1" parent="1">
          <mxGeometry x="90" y="80" width="70" height="30" as="geometry" />
        </mxCell>
        <mxCell id="XOc9_vDRdyOMPMZFaufi-9" value="valid" style="text;html=1;align=center;verticalAlign=middle;whiteSpace=wrap;rounded=0;" vertex="1" parent="1">
          <mxGeometry x="87" y="50" width="70" height="30" as="geometry" />
        </mxCell>
        <mxCell id="XOc9_vDRdyOMPMZFaufi-10" value="last" style="text;html=1;align=center;verticalAlign=middle;whiteSpace=wrap;rounded=0;" vertex="1" parent="1">
          <mxGeometry x="90" y="110" width="70" height="30" as="geometry" />
        </mxCell>
        <mxCell id="XOc9_vDRdyOMPMZFaufi-11" value="ready" style="text;html=1;align=center;verticalAlign=middle;resizable=0;points=[];autosize=1;strokeColor=none;fillColor=none;" vertex="1" parent="1">
          <mxGeometry x="100" y="140" width="50" height="30" as="geometry" />
        </mxCell>
        <mxCell id="XOc9_vDRdyOMPMZFaufi-12" value="" style="endArrow=classic;html=1;rounded=0;exitX=0;exitY=0.318;exitDx=0;exitDy=0;exitPerimeter=0;strokeWidth=3;" edge="1" parent="1">
          <mxGeometry width="50" height="50" relative="1" as="geometry">
            <mxPoint x="165" y="490" as="sourcePoint" />
            <mxPoint x="85" y="490" as="targetPoint" />
          </mxGeometry>
        </mxCell>
        <mxCell id="XOc9_vDRdyOMPMZFaufi-13" value="" style="endArrow=classic;html=1;rounded=0;exitX=0;exitY=0.318;exitDx=0;exitDy=0;exitPerimeter=0;strokeWidth=3;" edge="1" parent="1">
          <mxGeometry width="50" height="50" relative="1" as="geometry">
            <mxPoint x="94.5" y="464.99" as="sourcePoint" />
            <mxPoint x="164.5" y="464.99" as="targetPoint" />
          </mxGeometry>
        </mxCell>
        <mxCell id="XOc9_vDRdyOMPMZFaufi-14" value="" style="endArrow=classic;html=1;rounded=0;exitX=0;exitY=0.318;exitDx=0;exitDy=0;exitPerimeter=0;strokeWidth=3;" edge="1" parent="1">
          <mxGeometry width="50" height="50" relative="1" as="geometry">
            <mxPoint x="94.5" y="434.99" as="sourcePoint" />
            <mxPoint x="164.5" y="434.99" as="targetPoint" />
          </mxGeometry>
        </mxCell>
        <mxCell id="XOc9_vDRdyOMPMZFaufi-15" value="" style="endArrow=classic;html=1;rounded=0;exitX=0;exitY=0.318;exitDx=0;exitDy=0;exitPerimeter=0;strokeWidth=3;" edge="1" parent="1">
          <mxGeometry width="50" height="50" relative="1" as="geometry">
            <mxPoint x="94.5" y="404.99" as="sourcePoint" />
            <mxPoint x="164.5" y="404.99" as="targetPoint" />
          </mxGeometry>
        </mxCell>
        <mxCell id="XOc9_vDRdyOMPMZFaufi-16" value="[9:0] height" style="text;html=1;align=center;verticalAlign=middle;whiteSpace=wrap;rounded=0;" vertex="1" parent="1">
          <mxGeometry x="94.5" y="404.99" width="70" height="30" as="geometry" />
        </mxCell>
        <mxCell id="XOc9_vDRdyOMPMZFaufi-17" value="valid" style="text;html=1;align=center;verticalAlign=middle;whiteSpace=wrap;rounded=0;" vertex="1" parent="1">
          <mxGeometry x="84.5" y="344.99" width="70" height="30" as="geometry" />
        </mxCell>
        <mxCell id="XOc9_vDRdyOMPMZFaufi-18" value="[7:0] threshold" style="text;html=1;align=center;verticalAlign=middle;whiteSpace=wrap;rounded=0;" vertex="1" parent="1">
          <mxGeometry x="79.5" y="434.99" width="85" height="30" as="geometry" />
        </mxCell>
        <mxCell id="XOc9_vDRdyOMPMZFaufi-19" value="ready" style="text;html=1;align=center;verticalAlign=middle;resizable=0;points=[];autosize=1;strokeColor=none;fillColor=none;" vertex="1" parent="1">
          <mxGeometry x="105" y="460" width="50" height="30" as="geometry" />
        </mxCell>
        <mxCell id="XOc9_vDRdyOMPMZFaufi-20" value="" style="endArrow=classic;html=1;rounded=0;exitX=0;exitY=0.318;exitDx=0;exitDy=0;exitPerimeter=0;strokeWidth=3;" edge="1" parent="1">
          <mxGeometry width="50" height="50" relative="1" as="geometry">
            <mxPoint x="94.5" y="372.49" as="sourcePoint" />
            <mxPoint x="164.5" y="372.49" as="targetPoint" />
          </mxGeometry>
        </mxCell>
        <mxCell id="XOc9_vDRdyOMPMZFaufi-21" value="[11:0] width" style="text;html=1;align=center;verticalAlign=middle;whiteSpace=wrap;rounded=0;" vertex="1" parent="1">
          <mxGeometry x="89.5" y="374.99" width="70" height="30" as="geometry" />
        </mxCell>
        <mxCell id="XOc9_vDRdyOMPMZFaufi-22" value="" style="endArrow=classic;html=1;rounded=0;exitX=0;exitY=0.318;exitDx=0;exitDy=0;exitPerimeter=0;strokeWidth=3;" edge="1" parent="1">
          <mxGeometry width="50" height="50" relative="1" as="geometry">
            <mxPoint x="95" y="350" as="sourcePoint" />
            <mxPoint x="165" y="350" as="targetPoint" />
          </mxGeometry>
        </mxCell>
        <mxCell id="XOc9_vDRdyOMPMZFaufi-23" value="clk" style="text;html=1;align=center;verticalAlign=middle;whiteSpace=wrap;rounded=0;" vertex="1" parent="1">
          <mxGeometry x="85" y="300" width="70" height="30" as="geometry" />
        </mxCell>
        <mxCell id="XOc9_vDRdyOMPMZFaufi-24" value="" style="endArrow=classic;html=1;rounded=0;exitX=0;exitY=0.318;exitDx=0;exitDy=0;exitPerimeter=0;strokeWidth=3;" edge="1" parent="1">
          <mxGeometry width="50" height="50" relative="1" as="geometry">
            <mxPoint x="95" y="327.5" as="sourcePoint" />
            <mxPoint x="165" y="327.5" as="targetPoint" />
          </mxGeometry>
        </mxCell>
        <mxCell id="XOc9_vDRdyOMPMZFaufi-25" value="rst" style="text;html=1;align=center;verticalAlign=middle;whiteSpace=wrap;rounded=0;" vertex="1" parent="1">
          <mxGeometry x="89" y="323" width="70" height="30" as="geometry" />
        </mxCell>
        <mxCell id="XOc9_vDRdyOMPMZFaufi-26" value="rotate" style="text;html=1;align=center;verticalAlign=middle;resizable=0;points=[];autosize=1;strokeColor=none;fillColor=none;" vertex="1" parent="1">
          <mxGeometry x="615" y="302" width="50" height="30" as="geometry" />
        </mxCell>
        <mxCell id="XOc9_vDRdyOMPMZFaufi-27" value="[7:0] pixel1" style="text;html=1;align=center;verticalAlign=middle;resizable=0;points=[];autosize=1;strokeColor=none;fillColor=none;" vertex="1" parent="1">
          <mxGeometry x="832" y="68" width="80" height="30" as="geometry" />
        </mxCell>
        <mxCell id="XOc9_vDRdyOMPMZFaufi-28" value="[7:0] pixel2" style="text;html=1;align=center;verticalAlign=middle;resizable=0;points=[];autosize=1;strokeColor=none;fillColor=none;" vertex="1" parent="1">
          <mxGeometry x="834" y="122.5" width="80" height="30" as="geometry" />
        </mxCell>
        <mxCell id="XOc9_vDRdyOMPMZFaufi-29" value="[7:0] curr_pixel" style="text;html=1;align=center;verticalAlign=middle;resizable=0;points=[];autosize=1;strokeColor=none;fillColor=none;" vertex="1" parent="1">
          <mxGeometry x="480" y="-20" width="100" height="30" as="geometry" />
        </mxCell>
        <mxCell id="XOc9_vDRdyOMPMZFaufi-31" value="" style="edgeStyle=orthogonalEdgeStyle;rounded=0;orthogonalLoop=1;jettySize=auto;html=1;strokeWidth=3;" edge="1" parent="1">
          <mxGeometry relative="1" as="geometry">
            <mxPoint x="736" y="-229.42000000000002" as="targetPoint" />
            <mxPoint x="640" y="-229" as="sourcePoint" />
          </mxGeometry>
        </mxCell>
        <mxCell id="XOc9_vDRdyOMPMZFaufi-32" value="" style="edgeStyle=orthogonalEdgeStyle;rounded=0;orthogonalLoop=1;jettySize=auto;html=1;strokeWidth=3;" edge="1" parent="1">
          <mxGeometry relative="1" as="geometry">
            <mxPoint x="736" y="-120.00000000000001" as="targetPoint" />
            <mxPoint x="640" y="-119.58" as="sourcePoint" />
          </mxGeometry>
        </mxCell>
        <mxCell id="XOc9_vDRdyOMPMZFaufi-33" value="" style="endArrow=classic;html=1;rounded=0;exitX=0;exitY=0.318;exitDx=0;exitDy=0;exitPerimeter=0;strokeWidth=3;" edge="1" parent="1">
          <mxGeometry width="50" height="50" relative="1" as="geometry">
            <mxPoint x="89" y="50.620000000000005" as="sourcePoint" />
            <mxPoint x="159" y="50.620000000000005" as="targetPoint" />
          </mxGeometry>
        </mxCell>
        <mxCell id="XOc9_vDRdyOMPMZFaufi-34" value="clk" style="text;html=1;align=center;verticalAlign=middle;whiteSpace=wrap;rounded=0;" vertex="1" parent="1">
          <mxGeometry x="79" y="0.620000000000001" width="70" height="30" as="geometry" />
        </mxCell>
        <mxCell id="XOc9_vDRdyOMPMZFaufi-35" value="" style="endArrow=classic;html=1;rounded=0;exitX=0;exitY=0.318;exitDx=0;exitDy=0;exitPerimeter=0;strokeWidth=3;" edge="1" parent="1">
          <mxGeometry width="50" height="50" relative="1" as="geometry">
            <mxPoint x="89" y="28.12" as="sourcePoint" />
            <mxPoint x="159" y="28.12" as="targetPoint" />
          </mxGeometry>
        </mxCell>
        <mxCell id="XOc9_vDRdyOMPMZFaufi-36" value="rst" style="text;html=1;align=center;verticalAlign=middle;whiteSpace=wrap;rounded=0;" vertex="1" parent="1">
          <mxGeometry x="83" y="23.62" width="70" height="30" as="geometry" />
        </mxCell>
        <mxCell id="XOc9_vDRdyOMPMZFaufi-39" value="" style="edgeStyle=orthogonalEdgeStyle;rounded=0;orthogonalLoop=1;jettySize=auto;html=1;strokeWidth=3;entryX=1;entryY=0.5;entryDx=0;entryDy=0;" edge="1" parent="1">
          <mxGeometry relative="1" as="geometry">
            <mxPoint x="691" y="244.99" as="targetPoint" />
            <mxPoint x="691.3" y="404.99" as="sourcePoint" />
          </mxGeometry>
        </mxCell>
        <mxCell id="XOc9_vDRdyOMPMZFaufi-40" value="frame_manager&lt;div&gt;enable&lt;/div&gt;" style="text;html=1;align=center;verticalAlign=middle;resizable=0;points=[];autosize=1;strokeColor=none;fillColor=none;" vertex="1" parent="1">
          <mxGeometry x="690" y="297.5" width="110" height="40" as="geometry" />
        </mxCell>
        <mxCell id="XOc9_vDRdyOMPMZFaufi-41" value="[31:0] pixel" style="text;html=1;align=center;verticalAlign=middle;whiteSpace=wrap;rounded=0;" vertex="1" parent="1">
          <mxGeometry x="275" y="92.5" width="70" height="30" as="geometry" />
        </mxCell>
        <mxCell id="XOc9_vDRdyOMPMZFaufi-42" value="motion_detector&lt;div&gt;enable&lt;/div&gt;" style="text;html=1;align=center;verticalAlign=middle;resizable=0;points=[];autosize=1;strokeColor=none;fillColor=none;" vertex="1" parent="1">
          <mxGeometry x="990" y="353" width="110" height="40" as="geometry" />
        </mxCell>
        <mxCell id="XOc9_vDRdyOMPMZFaufi-44" value="Wvalid" style="text;html=1;align=center;verticalAlign=middle;resizable=0;points=[];autosize=1;strokeColor=none;fillColor=none;" vertex="1" parent="1">
          <mxGeometry x="-210" y="-234.5" width="60" height="30" as="geometry" />
        </mxCell>
        <mxCell id="XOc9_vDRdyOMPMZFaufi-45" value="" style="edgeStyle=orthogonalEdgeStyle;rounded=0;orthogonalLoop=1;jettySize=auto;html=1;strokeWidth=3;" edge="1" parent="1">
          <mxGeometry relative="1" as="geometry">
            <mxPoint x="237" y="-480.5" as="targetPoint" />
            <mxPoint x="237" y="-352" as="sourcePoint" />
          </mxGeometry>
        </mxCell>
        <mxCell id="XOc9_vDRdyOMPMZFaufi-46" value="" style="edgeStyle=orthogonalEdgeStyle;rounded=0;orthogonalLoop=1;jettySize=auto;html=1;strokeWidth=3;" edge="1" parent="1">
          <mxGeometry relative="1" as="geometry">
            <mxPoint x="291" y="-354" as="targetPoint" />
            <mxPoint x="291" y="-477.5" as="sourcePoint" />
          </mxGeometry>
        </mxCell>
        <mxCell id="XOc9_vDRdyOMPMZFaufi-47" value="" style="edgeStyle=orthogonalEdgeStyle;rounded=0;orthogonalLoop=1;jettySize=auto;html=1;strokeWidth=3;" edge="1" parent="1">
          <mxGeometry relative="1" as="geometry">
            <mxPoint x="182" y="-480.5" as="targetPoint" />
            <mxPoint x="182" y="-352" as="sourcePoint" />
          </mxGeometry>
        </mxCell>
        <mxCell id="XOc9_vDRdyOMPMZFaufi-48" value="[31:0] Wdata" style="text;html=1;align=center;verticalAlign=middle;whiteSpace=wrap;rounded=0;" vertex="1" parent="1">
          <mxGeometry x="-270" y="-222.5" width="50" height="30" as="geometry" />
        </mxCell>
        <mxCell id="XOc9_vDRdyOMPMZFaufi-49" value="Wlast" style="text;html=1;align=center;verticalAlign=middle;whiteSpace=wrap;rounded=0;" vertex="1" parent="1">
          <mxGeometry x="-275" y="-184.5" width="50" height="30" as="geometry" />
        </mxCell>
        <mxCell id="XOc9_vDRdyOMPMZFaufi-50" value="Wready" style="text;html=1;align=center;verticalAlign=middle;whiteSpace=wrap;rounded=0;" vertex="1" parent="1">
          <mxGeometry x="-260" y="-154.5" width="60" height="30" as="geometry" />
        </mxCell>
        <mxCell id="XOc9_vDRdyOMPMZFaufi-51" value="[31:0] AWaddr" style="text;html=1;align=center;verticalAlign=middle;whiteSpace=wrap;rounded=0;" vertex="1" parent="1">
          <mxGeometry x="-255" y="-104.5" width="50" height="30" as="geometry" />
        </mxCell>
        <mxCell id="XOc9_vDRdyOMPMZFaufi-52" value="AWvalid" style="text;html=1;align=center;verticalAlign=middle;whiteSpace=wrap;rounded=0;" vertex="1" parent="1">
          <mxGeometry x="-240" y="-19" width="50" height="30" as="geometry" />
        </mxCell>
        <mxCell id="XOc9_vDRdyOMPMZFaufi-53" value="AWready" style="text;html=1;align=center;verticalAlign=middle;whiteSpace=wrap;rounded=0;" vertex="1" parent="1">
          <mxGeometry x="-186" y="-49" width="60" height="30" as="geometry" />
        </mxCell>
        <mxCell id="XOc9_vDRdyOMPMZFaufi-54" value="ARready" style="text;html=1;align=center;verticalAlign=middle;whiteSpace=wrap;rounded=0;" vertex="1" parent="1">
          <mxGeometry x="235" y="-427.5" width="60" height="30" as="geometry" />
        </mxCell>
        <mxCell id="XOc9_vDRdyOMPMZFaufi-55" value="[31:0] AWaddr" style="text;html=1;align=center;verticalAlign=middle;whiteSpace=wrap;rounded=0;" vertex="1" parent="1">
          <mxGeometry x="120" y="-254.5" width="60" height="30" as="geometry" />
        </mxCell>
        <mxCell id="XOc9_vDRdyOMPMZFaufi-56" value="ARvalid" style="text;html=1;align=center;verticalAlign=middle;resizable=0;points=[];autosize=1;strokeColor=none;fillColor=none;" vertex="1" parent="1">
          <mxGeometry x="182" y="-428" width="60" height="30" as="geometry" />
        </mxCell>
        <mxCell id="XOc9_vDRdyOMPMZFaufi-57" value="Rready" style="text;html=1;align=center;verticalAlign=middle;whiteSpace=wrap;rounded=0;" vertex="1" parent="1">
          <mxGeometry x="-370" y="-254.5" width="60" height="30" as="geometry" />
        </mxCell>
        <mxCell id="XOc9_vDRdyOMPMZFaufi-58" value="[31:0] Rdata" style="text;html=1;align=center;verticalAlign=middle;whiteSpace=wrap;rounded=0;" vertex="1" parent="1">
          <mxGeometry x="-370" y="-304.5" width="60" height="30" as="geometry" />
        </mxCell>
        <mxCell id="XOc9_vDRdyOMPMZFaufi-59" value="Rvalid" style="text;html=1;align=center;verticalAlign=middle;resizable=0;points=[];autosize=1;strokeColor=none;fillColor=none;" vertex="1" parent="1">
          <mxGeometry x="-370" y="-214.5" width="60" height="30" as="geometry" />
        </mxCell>
        <mxCell id="XOc9_vDRdyOMPMZFaufi-60" value="Rlast" style="text;html=1;align=center;verticalAlign=middle;whiteSpace=wrap;rounded=0;" vertex="1" parent="1">
          <mxGeometry x="-370" y="-181" width="60" height="30" as="geometry" />
        </mxCell>
        <mxCell id="XOc9_vDRdyOMPMZFaufi-62" value="" style="edgeStyle=orthogonalEdgeStyle;rounded=0;orthogonalLoop=1;jettySize=auto;html=1;strokeWidth=3;" edge="1" parent="1">
          <mxGeometry relative="1" as="geometry">
            <mxPoint x="233.89" y="-292" as="targetPoint" />
            <mxPoint x="234" y="-200" as="sourcePoint" />
          </mxGeometry>
        </mxCell>
        <mxCell id="XOc9_vDRdyOMPMZFaufi-63" value="" style="edgeStyle=orthogonalEdgeStyle;rounded=0;orthogonalLoop=1;jettySize=auto;html=1;strokeWidth=3;" edge="1" parent="1">
          <mxGeometry relative="1" as="geometry">
            <mxPoint x="-42" y="-335.25" as="targetPoint" />
            <mxPoint x="-42" y="-206.75" as="sourcePoint" />
          </mxGeometry>
        </mxCell>
        <mxCell id="XOc9_vDRdyOMPMZFaufi-64" value="" style="edgeStyle=orthogonalEdgeStyle;rounded=0;orthogonalLoop=1;jettySize=auto;html=1;strokeWidth=3;" edge="1" parent="1">
          <mxGeometry relative="1" as="geometry">
            <mxPoint x="12" y="-208.75" as="targetPoint" />
            <mxPoint x="12" y="-332.25" as="sourcePoint" />
          </mxGeometry>
        </mxCell>
        <mxCell id="XOc9_vDRdyOMPMZFaufi-65" value="" style="edgeStyle=orthogonalEdgeStyle;rounded=0;orthogonalLoop=1;jettySize=auto;html=1;strokeWidth=3;" edge="1" parent="1">
          <mxGeometry relative="1" as="geometry">
            <mxPoint x="66" y="-333" as="targetPoint" />
            <mxPoint x="66" y="-204.5" as="sourcePoint" />
          </mxGeometry>
        </mxCell>
        <mxCell id="XOc9_vDRdyOMPMZFaufi-66" value="ARready" style="text;html=1;align=center;verticalAlign=middle;whiteSpace=wrap;rounded=0;" vertex="1" parent="1">
          <mxGeometry x="-44" y="-282.25" width="60" height="30" as="geometry" />
        </mxCell>
        <mxCell id="XOc9_vDRdyOMPMZFaufi-67" value="[31:0] ARaddr" style="text;html=1;align=center;verticalAlign=middle;whiteSpace=wrap;rounded=0;" vertex="1" parent="1">
          <mxGeometry x="180" y="-254.75" width="60" height="30" as="geometry" />
        </mxCell>
        <mxCell id="XOc9_vDRdyOMPMZFaufi-68" value="ARvalid" style="text;html=1;align=center;verticalAlign=middle;resizable=0;points=[];autosize=1;strokeColor=none;fillColor=none;" vertex="1" parent="1">
          <mxGeometry x="-97" y="-282.75" width="60" height="30" as="geometry" />
        </mxCell>
        <mxCell id="XOc9_vDRdyOMPMZFaufi-69" value="" style="edgeStyle=orthogonalEdgeStyle;rounded=0;orthogonalLoop=1;jettySize=auto;html=1;strokeWidth=3;exitX=-0.008;exitY=0.88;exitDx=0;exitDy=0;exitPerimeter=0;" edge="1" parent="1" source="5wcGb58u3SQSDJ49Bvyi-7">
          <mxGeometry relative="1" as="geometry">
            <mxPoint x="636.5" y="-49" as="targetPoint" />
            <mxPoint x="730" y="-49" as="sourcePoint" />
          </mxGeometry>
        </mxCell>
        <mxCell id="XOc9_vDRdyOMPMZFaufi-70" value="" style="edgeStyle=orthogonalEdgeStyle;rounded=0;orthogonalLoop=1;jettySize=auto;html=1;strokeWidth=3;exitX=-0.008;exitY=0.88;exitDx=0;exitDy=0;exitPerimeter=0;" edge="1" parent="1">
          <mxGeometry relative="1" as="geometry">
            <mxPoint x="637.5" y="-166.16" as="targetPoint" />
            <mxPoint x="736" y="-166.16" as="sourcePoint" />
          </mxGeometry>
        </mxCell>
        <mxCell id="XOc9_vDRdyOMPMZFaufi-71" value="[7:0] background_next" style="text;html=1;align=center;verticalAlign=middle;whiteSpace=wrap;rounded=0;" vertex="1" parent="1">
          <mxGeometry x="655" y="-264.5" width="60" height="30" as="geometry" />
        </mxCell>
        <mxCell id="XOc9_vDRdyOMPMZFaufi-72" value="[7:0] background" style="text;html=1;align=center;verticalAlign=middle;whiteSpace=wrap;rounded=0;" vertex="1" parent="1">
          <mxGeometry x="655" y="-204.5" width="60" height="30" as="geometry" />
        </mxCell>
        <mxCell id="XOc9_vDRdyOMPMZFaufi-73" value="[7:0] variance_next" style="text;html=1;align=center;verticalAlign=middle;whiteSpace=wrap;rounded=0;" vertex="1" parent="1">
          <mxGeometry x="655" y="-154.5" width="60" height="30" as="geometry" />
        </mxCell>
        <mxCell id="XOc9_vDRdyOMPMZFaufi-74" value="[7:0] variance" style="text;html=1;align=center;verticalAlign=middle;whiteSpace=wrap;rounded=0;" vertex="1" parent="1">
          <mxGeometry x="658" y="-87" width="60" height="30" as="geometry" />
        </mxCell>
        <mxCell id="XOc9_vDRdyOMPMZFaufi-75" value="" style="edgeStyle=orthogonalEdgeStyle;rounded=0;orthogonalLoop=1;jettySize=auto;html=1;strokeWidth=3;" edge="1" parent="1">
          <mxGeometry relative="1" as="geometry">
            <mxPoint x="934.32" y="337.5" as="targetPoint" />
            <mxPoint x="934.2" y="407.5" as="sourcePoint" />
          </mxGeometry>
        </mxCell>
        <mxCell id="XOc9_vDRdyOMPMZFaufi-76" value="[7:0] threshold" style="text;html=1;align=center;verticalAlign=middle;resizable=0;points=[];autosize=1;strokeColor=none;fillColor=none;" vertex="1" parent="1">
          <mxGeometry x="842" y="360" width="100" height="30" as="geometry" />
        </mxCell>
        <mxCell id="XOc9_vDRdyOMPMZFaufi-77" value="" style="edgeStyle=orthogonalEdgeStyle;rounded=0;orthogonalLoop=1;jettySize=auto;html=1;strokeWidth=3;" edge="1" parent="1">
          <mxGeometry relative="1" as="geometry">
            <mxPoint x="350" y="-290" as="targetPoint" />
            <mxPoint x="350" y="120" as="sourcePoint" />
          </mxGeometry>
        </mxCell>
        <mxCell id="XOc9_vDRdyOMPMZFaufi-78" value="[31:0] Rdata" style="text;html=1;align=center;verticalAlign=middle;whiteSpace=wrap;rounded=0;" vertex="1" parent="1">
          <mxGeometry x="1549" y="-167" width="60" height="30" as="geometry" />
        </mxCell>
        <mxCell id="XOc9_vDRdyOMPMZFaufi-80" value="[31:0] ARaddr" style="text;html=1;align=center;verticalAlign=middle;whiteSpace=wrap;rounded=0;" vertex="1" parent="1">
          <mxGeometry x="125" y="-430.5" width="60" height="30" as="geometry" />
        </mxCell>
        <mxCell id="XOc9_vDRdyOMPMZFaufi-82" value="" style="edgeStyle=orthogonalEdgeStyle;rounded=0;orthogonalLoop=1;jettySize=auto;html=1;strokeWidth=3;" edge="1" parent="1">
          <mxGeometry relative="1" as="geometry">
            <mxPoint x="437.62" y="-353.25" as="targetPoint" />
            <mxPoint x="437.62" y="-476.75" as="sourcePoint" />
          </mxGeometry>
        </mxCell>
        <mxCell id="XOc9_vDRdyOMPMZFaufi-84" value="Rready" style="text;html=1;align=center;verticalAlign=middle;whiteSpace=wrap;rounded=0;" vertex="1" parent="1">
          <mxGeometry x="436" y="-430" width="60" height="30" as="geometry" />
        </mxCell>
        <mxCell id="XOc9_vDRdyOMPMZFaufi-85" value="Rvalid" style="text;html=1;align=center;verticalAlign=middle;resizable=0;points=[];autosize=1;strokeColor=none;fillColor=none;" vertex="1" parent="1">
          <mxGeometry x="383" y="-430.5" width="60" height="30" as="geometry" />
        </mxCell>
        <mxCell id="XOc9_vDRdyOMPMZFaufi-86" value="[31:0] Rdata" style="text;html=1;align=center;verticalAlign=middle;whiteSpace=wrap;rounded=0;" vertex="1" parent="1">
          <mxGeometry x="332" y="-432.5" width="60" height="30" as="geometry" />
        </mxCell>
        <mxCell id="XOc9_vDRdyOMPMZFaufi-87" value="" style="edgeStyle=orthogonalEdgeStyle;rounded=0;orthogonalLoop=1;jettySize=auto;html=1;strokeWidth=3;" edge="1" parent="1">
          <mxGeometry relative="1" as="geometry">
            <mxPoint x="491" y="-479.75" as="targetPoint" />
            <mxPoint x="491" y="-351.25" as="sourcePoint" />
          </mxGeometry>
        </mxCell>
        <mxCell id="XOc9_vDRdyOMPMZFaufi-88" value="" style="edgeStyle=orthogonalEdgeStyle;rounded=0;orthogonalLoop=1;jettySize=auto;html=1;strokeWidth=3;" edge="1" parent="1">
          <mxGeometry relative="1" as="geometry">
            <mxPoint x="386" y="-353.25" as="targetPoint" />
            <mxPoint x="386" y="-476.75" as="sourcePoint" />
          </mxGeometry>
        </mxCell>
        <mxCell id="XOc9_vDRdyOMPMZFaufi-91" value="" style="edgeStyle=orthogonalEdgeStyle;rounded=0;orthogonalLoop=1;jettySize=auto;html=1;strokeWidth=3;" edge="1" parent="1">
          <mxGeometry relative="1" as="geometry">
            <mxPoint x="628.5" y="-479.75" as="targetPoint" />
            <mxPoint x="628.5" y="-351.25" as="sourcePoint" />
          </mxGeometry>
        </mxCell>
        <mxCell id="XOc9_vDRdyOMPMZFaufi-92" value="" style="edgeStyle=orthogonalEdgeStyle;rounded=0;orthogonalLoop=1;jettySize=auto;html=1;strokeWidth=3;" edge="1" parent="1">
          <mxGeometry relative="1" as="geometry">
            <mxPoint x="682.5" y="-353.25" as="targetPoint" />
            <mxPoint x="682.5" y="-476.75" as="sourcePoint" />
          </mxGeometry>
        </mxCell>
        <mxCell id="XOc9_vDRdyOMPMZFaufi-93" value="" style="edgeStyle=orthogonalEdgeStyle;rounded=0;orthogonalLoop=1;jettySize=auto;html=1;strokeWidth=3;" edge="1" parent="1">
          <mxGeometry relative="1" as="geometry">
            <mxPoint x="573.5" y="-479.75" as="targetPoint" />
            <mxPoint x="573.5" y="-351.25" as="sourcePoint" />
          </mxGeometry>
        </mxCell>
        <mxCell id="XOc9_vDRdyOMPMZFaufi-94" value="AWready" style="text;html=1;align=center;verticalAlign=middle;whiteSpace=wrap;rounded=0;" vertex="1" parent="1">
          <mxGeometry x="626.5" y="-426.75" width="60" height="30" as="geometry" />
        </mxCell>
        <mxCell id="XOc9_vDRdyOMPMZFaufi-95" value="AWvalid" style="text;html=1;align=center;verticalAlign=middle;resizable=0;points=[];autosize=1;strokeColor=none;fillColor=none;" vertex="1" parent="1">
          <mxGeometry x="568.5" y="-427.25" width="70" height="30" as="geometry" />
        </mxCell>
        <mxCell id="XOc9_vDRdyOMPMZFaufi-96" value="[31:0] AWaddr" style="text;html=1;align=center;verticalAlign=middle;whiteSpace=wrap;rounded=0;" vertex="1" parent="1">
          <mxGeometry x="516.5" y="-429.75" width="60" height="30" as="geometry" />
        </mxCell>
      </root>
    </mxGraphModel>
  </diagram>
</mxfile>
